<svg xmlns="http://www.w3.org/2000/svg" viewBox="0 0 64 64">
  <defs>
    <linearGradient id="nf-bg" x1="0" y1="0" x2="1" y2="1">
      <stop offset="0" stop-color="#1f4a8f"/>
      <stop offset="1" stop-color="#071b34"/>
    </linearGradient>
    <linearGradient id="nf-beam" x1="0" y1="0" x2="1" y2="0">
      <stop offset="0" stop-color="#ffcc4d"/>
      <stop offset="1" stop-color="#ffcc4d" stop-opacity="0.15"/>
    </linearGradient>
    <clipPath id="nf-clip"><rect width="64" height="64" rx="15"/></clipPath>
  </defs>
  <g clip-path="url(#nf-clip)">
    <rect width="64" height="64" fill="url(#nf-bg)"/>
    <path d="M30 16 L64 4 L64 36 L30 23 Z" fill="url(#nf-beam)"/>
    <path d="M0 57 C9 52 17 52 26 57 C35 62 43 62 52 57 C56 55 60 54 64 55 L64 64 L0 64 Z" fill="#4162da"/>
    <path d="M13 58 L17 26 L29 26 L33 58 Z" fill="#ffffff"/>
    <path d="M15 42 L31 42 L31.8 48.5 L14.2 48.5 Z" fill="#4162da"/>
    <rect x="16" y="15" width="14" height="10" rx="2" fill="#ffcc4d"/>
    <path d="M14 16 L23 7 L32 16 Z" fill="#ffffff"/>
    <rect x="14" y="24" width="18" height="3.5" rx="1.2" fill="#ffffff"/>
  </g>
</svg>
